<?xml version="1.0" standalone="no"?><!DOCTYPE svg PUBLIC "-//W3C//DTD SVG 1.1//EN" "http://www.w3.org/Graphics/SVG/1.1/DTD/svg11.dtd"><svg t="1576372179750" class="icon" viewBox="0 0 1024 1024" version="1.1" xmlns="http://www.w3.org/2000/svg" p-id="672" xmlns:xlink="http://www.w3.org/1999/xlink" width="200" height="200"><defs><style type="text/css"></style></defs><path d="M449.553 131.583H138.477c-3.854 0-6.946 3.095-6.946 6.917v311.184c0 3.78 3.093 6.875 6.946 6.875h311.076c3.832 0 6.946-3.114 6.946-6.875V138.5c0-3.802-3.113-6.917-6.946-6.917z m0-34.583c22.886 0 41.477 18.58 41.477 41.5v311.184c0 22.878-18.59 41.458-41.477 41.458H138.477C115.55 491.142 97 472.562 97 449.684V138.5C97 115.58 115.55 97 138.477 97h311.076zM449.553 567.184H138.477a6.925 6.925 0 0 0-6.946 6.954v311.143c0 3.783 3.092 6.875 6.946 6.875h311.076c3.833 0 6.946-3.112 6.946-6.875V574.138c0-3.84-3.111-6.954-6.946-6.954z m0-34.583c22.886 0 41.477 18.578 41.477 41.537v311.143c0 22.88-18.59 41.459-41.477 41.459H138.477C115.55 926.74 97 908.162 97 885.28V574.138c0-22.96 18.55-41.537 41.477-41.537h311.076zM709.926 842.27c72.47 0 131.218-58.836 131.218-131.416s-58.748-131.417-131.218-131.417-131.218 58.838-131.218 131.417c0 72.58 58.748 131.417 131.218 131.417z m0 32.855c-90.587 0-164.022-73.547-164.022-164.27 0-90.725 73.435-164.272 164.022-164.272 90.587 0 164.022 73.547 164.022 164.271 0 90.724-73.435 164.271-164.022 164.271zM885.06 131.583H573.985c-3.854 0-6.947 3.096-6.947 6.917v311.184c0 3.78 3.094 6.875 6.947 6.875h311.077c3.83 0 6.944-3.113 6.944-6.875V138.5c0-3.803-3.113-6.917-6.944-6.917z m0-34.583c22.886 0 41.476 18.58 41.476 41.5v311.184c0 22.878-18.59 41.458-41.475 41.458H573.984c-22.926 0-41.478-18.58-41.478-41.458V138.5c0-22.92 18.552-41.5 41.478-41.5h311.077z" p-id="673" fill="#d81e06"></path><path d="M817.113065 793.811898l106.247037 106.247037-24.453874 24.453874-106.247037-106.247037 24.453874-24.453874Z" p-id="674" fill="#d81e06"></path></svg>